Coordinates
version=1
nRows=18
nColumns=63
inDegrees=yes

Units are S.I. units (second, meters, Newtons, ...)
If the header above contains a line with 'inDegrees', this indicates whether rotational values are in degrees (yes) or radians (no).

endheader
time	pelvis_tilt	pelvis_list	pelvis_rotation	pelvis_tx	pelvis_ty	pelvis_tz	hip_flexion_r	hip_adduction_r	hip_rotation_r	knee_angle_r	knee_angle_r_beta	ankle_angle_r	subtalar_angle_r	mtp_angle_r	hip_flexion_l	hip_adduction_l	hip_rotation_l	knee_angle_l	knee_angle_l_beta	ankle_angle_l	subtalar_angle_l	mtp_angle_l	L5_S1_Flex_Ext	L5_S1_Lat_Bending	L5_S1_axial_rotation	L4_L5_Flex_Ext	L4_L5_Lat_Bending	L4_L5_axial_rotation	L3_L4_Flex_Ext	L3_L4_Lat_Bending	L3_L4_axial_rotation	L2_L3_Flex_Ext	L2_L3_Lat_Bending	L2_L3_axial_rotation	L1_L2_Flex_Ext	L1_L2_Lat_Bending	L1_L2_axial_rotation	L1_T12_Flex_Ext	L1_T12_Lat_Bending	L1_T12_axial_rotation	Abs_r3	Abs_r2	Abs_r1	Abs_t1	Abs_t2	neck_flexion	neck_bending	neck_rotation	arm_flex_r	arm_add_r	arm_rot_r	elbow_flex_r	pro_sup_r	wrist_flex_r	wrist_dev_r	arm_flex_l	arm_add_l	arm_rot_l	elbow_flex_l	pro_sup_l	wrist_flex_l	wrist_dev_l
7.525424	-6.442210	-0.875043	91.095091	0.164601	1.177290	0.363465	1.006642	-6.827337	-0.530563	17.562339	0.306521	19.045778	1.283449	0.000000	-3.369274	5.484294	-14.894510	8.477999	0.147969	12.695300	11.025043	0.000000	0.157102	-1.169806	0.162197	0.291754	-1.555842	0.172334	0.258102	-2.844267	0.172334	0.179552	-2.844267	0.141922	0.145885	-2.385469	0.131785	0.089768	-1.812030	0.121648	1.122162	-13.233081	0.902092	0.000000	0.000000	25.057705	-2.010445	-15.434626	64.119620	-19.126560	2.053875	120.640926	88.832110	-7.592792	5.116454	75.052891	-2.094097	16.471863	101.018424	89.385555	-7.742008	2.946628
7.542373	-6.505606	0.163771	91.148458	0.163486	1.177245	0.361556	-0.249708	-6.988528	-1.021410	17.661930	0.308259	19.330201	1.780942	0.000000	-4.666444	5.692621	-13.627247	8.313282	0.145094	13.110661	9.979953	0.000000	0.153778	-1.216574	0.164810	0.285581	-1.618044	0.175111	0.252642	-2.957978	0.175111	0.175753	-2.957978	0.144209	0.142798	-2.480838	0.133908	0.087869	-1.884473	0.123608	1.098420	-13.762129	0.916624	0.000000	0.000000	24.145765	-0.913846	-15.556288	59.373074	-17.746962	2.460178	123.630481	88.756534	-7.665341	5.845711	70.002825	-3.583343	17.051187	106.669297	88.810275	-6.764137	2.966663
7.559322	-6.572625	1.129783	91.150041	0.162426	1.176840	0.359312	-1.418145	-7.147168	-1.412149	17.813014	0.310896	19.658889	2.185172	0.000000	-5.894407	5.903839	-12.366738	8.181376	0.142792	13.637566	8.907784	0.000000	0.162278	-1.260249	0.171746	0.301367	-1.676131	0.182480	0.266607	-3.064168	0.182480	0.185468	-3.064168	0.150278	0.150692	-2.569899	0.139544	0.092726	-1.952125	0.128810	1.159137	-14.256184	0.955200	0.000000	0.000000	23.109363	0.043177	-15.949193	53.910408	-16.447129	2.598841	126.249269	88.735405	-8.190721	5.649903	64.348991	-5.214214	17.418134	112.020466	88.364214	-6.060283	2.824985
7.576271	-6.637207	2.015704	91.109431	0.161411	1.176163	0.356813	-2.485764	-7.292130	-1.685513	18.004960	0.314246	20.035117	2.475003	0.000000	-7.043318	6.109908	-11.147688	8.072441	0.140891	14.244686	7.840483	0.000000	0.180375	-1.299661	0.188800	0.334975	-1.728549	0.200600	0.296338	-3.159995	0.200600	0.206151	-3.159995	0.165200	0.167496	-2.650268	0.153400	0.103066	-2.013175	0.141600	1.288402	-14.702023	1.050050	0.000000	0.000000	21.971290	0.765392	-16.577971	47.890556	-15.304327	2.449328	128.596454	88.730780	-9.067773	4.808977	58.291138	-6.853423	17.560439	116.894297	88.024400	-5.699895	2.490025
7.593220	-6.685501	2.818078	91.021370	0.160462	1.175306	0.354176	-3.439076	-7.411137	-1.825460	18.227244	0.318125	20.452792	2.666118	0.000000	-8.098575	6.296525	-10.033530	7.991402	0.139476	14.899621	6.812136	0.000000	0.205914	-1.332378	0.217532	0.382402	-1.772063	0.231128	0.338295	-3.239544	0.231128	0.235339	-3.239544	0.190341	0.191211	-2.716985	0.176745	0.117659	-2.063854	0.163149	1.470820	-15.072127	1.209849	0.000000	0.000000	20.719723	1.242401	-17.267505	41.570263	-14.358371	2.033749	130.728204	88.734671	-10.232933	3.608405	52.019816	-8.413974	17.449505	121.183183	87.744866	-5.713929	1.938096
7.610169	-6.708033	3.523702	90.901160	0.159565	1.174336	0.351524	-4.261846	-7.495005	-1.849153	18.466457	0.322300	20.900164	2.772933	0.000000	-9.036595	6.447749	-9.089533	7.944118	0.138651	15.578198	5.902873	0.000000	0.237965	-1.356686	0.254380	0.441925	-1.804392	0.270278	0.390953	-3.298646	0.270278	0.271971	-3.298646	0.222582	0.220975	-2.766553	0.206683	0.135973	-2.101506	0.190785	1.699762	-15.347100	1.414783	0.000000	0.000000	19.392095	1.489443	-17.844286	35.199040	-13.582049	1.340702	132.697853	88.746714	-11.555477	2.248365	45.720724	-9.816416	17.013031	124.876651	87.497546	-5.981616	1.426485
7.627119	-6.692920	4.134748	90.778290	0.158689	1.173337	0.349007	-4.960585	-7.538676	-1.813179	18.705176	0.326467	21.364375	2.843666	0.000000	-9.849135	6.547795	-8.336432	7.937645	0.138538	16.263763	5.159619	0.000000	0.273187	-1.371626	0.298089	0.507335	-1.824263	0.316719	0.448819	-3.334972	0.316719	0.312225	-3.334972	0.260828	0.253681	-2.797020	0.242197	0.156099	-2.124649	0.223566	1.951346	-15.516110	1.657880	0.000000	0.000000	17.989141	1.542994	-18.298899	28.978470	-12.935607	0.357440	134.537036	88.759416	-12.943554	0.709964	39.603201	-11.008555	16.247970	127.947959	87.282245	-6.386939	1.082004
7.644068	-6.641538	4.654181	90.680916	0.157809	1.172374	0.346799	-5.534073	-7.545126	-1.758537	18.945457	0.330661	21.822315	2.889766	0.000000	-10.521945	6.605511	-7.633394	7.985395	0.139371	16.901423	4.397309	0.000000	0.307254	-1.378050	0.346380	0.570601	-1.832806	0.368029	0.504787	-3.350590	0.368029	0.351161	-3.350590	0.303082	0.285316	-2.810119	0.281434	0.175565	-2.134599	0.259785	2.194684	-15.588772	1.926461	0.000000	0.000000	16.533523	1.495277	-18.617816	23.080145	-12.388088	-0.887084	136.272346	88.753617	-14.352494	-1.136353	33.879645	-11.976562	15.231600	130.366425	87.110614	-6.892745	0.836938
7.661017	-6.558097	5.091461	90.600778	0.156984	1.171516	0.344987	-5.994103	-7.517179	-1.698759	19.176130	0.334687	22.246909	2.931912	0.000000	-11.071395	6.617414	-7.077052	8.065250	0.140765	17.474787	3.743138	0.000000	0.338114	-1.377018	0.396099	0.627911	-1.831433	0.420855	0.555487	-3.348081	0.420855	0.386430	-3.348081	0.346587	0.313973	-2.808014	0.321831	0.193198	-2.133000	0.297074	2.415114	-15.577099	2.202984	0.000000	0.000000	15.005166	1.484693	-18.688253	17.664100	-11.957833	-2.275592	137.911187	88.719261	-15.733675	-3.422021	28.714889	-12.729855	13.989938	132.229872	86.988360	-7.403270	1.095949
7.677966	-6.450951	5.445114	90.563260	0.156198	1.170800	0.343695	-6.341372	-7.461612	-1.667760	19.393077	0.338473	22.626116	2.974035	0.000000	-11.470919	6.587102	-6.609790	8.216310	0.143402	17.974953	3.140913	0.000000	0.364183	-1.369051	0.437174	0.676324	-1.820837	0.464498	0.598316	-3.328710	0.464498	0.416225	-3.328710	0.382528	0.338180	-2.791768	0.355204	0.208094	-2.120659	0.327881	2.601323	-15.486975	2.431433	0.000000	0.000000	13.450907	1.568080	-18.340237	12.888135	-11.602063	-3.675661	139.418162	88.649379	-16.952615	-6.315633	24.248500	-13.328202	12.582032	133.586710	86.924768	-7.758119	1.672105
7.694915	-6.322719	5.727863	90.553151	0.155472	1.170258	0.342957	-6.585753	-7.381194	-1.662268	19.596250	0.342019	22.951267	3.039821	0.000000	-11.737124	6.522139	-6.201534	8.423846	0.147024	18.393446	2.563557	0.000000	0.384409	-1.354667	0.465871	0.713886	-1.801707	0.494988	0.631546	-3.293738	0.494988	0.439341	-3.293738	0.407637	0.356962	-2.762437	0.378520	0.219651	-2.098379	0.349403	2.745797	-15.324265	2.591036	0.000000	0.000000	11.932956	1.773790	-17.534048	8.889551	-11.343272	-4.962865	140.778749	88.547864	-17.898531	-9.678371	20.566045	-13.787075	11.067912	134.530298	86.926033	-7.932247	2.557932
7.711864	-6.179510	5.950182	90.552579	0.154849	1.169906	0.342765	-6.736699	-7.279041	-1.664540	19.781463	0.345252	23.214183	3.126173	0.000000	-11.886339	6.431306	-5.842953	8.674803	0.151404	18.729925	1.991252	0.000000	0.398831	-1.334907	0.481976	0.740669	-1.775426	0.512100	0.655240	-3.245692	0.512100	0.455824	-3.245692	0.421729	0.370355	-2.722142	0.391606	0.227892	-2.067770	0.361482	2.848810	-15.100730	2.680606	0.000000	0.000000	10.542747	2.069903	-16.300825	5.773045	-11.196416	-6.044661	141.969222	88.427797	-18.512807	-13.154054	17.725343	-14.135106	9.540599	135.152187	86.992809	-7.980262	3.607930
7.728814	-6.031748	6.123004	90.549042	0.154357	1.169754	0.343064	-6.809561	-7.162612	-1.650135	19.942365	0.348060	23.412100	3.215067	0.000000	-11.949969	6.328013	-5.551769	8.931632	0.155886	18.972256	1.461139	0.000000	0.408282	-1.311236	0.487650	0.758220	-1.743944	0.518129	0.670766	-3.188140	0.518129	0.466625	-3.188140	0.426694	0.379131	-2.673873	0.396216	0.233292	-2.031105	0.365738	2.916317	-14.832968	2.712165	0.000000	0.000000	9.353776	2.394811	-14.724462	3.616156	-11.166999	-6.856525	142.931910	88.298174	-18.817908	-16.322255	15.728841	-14.387739	8.074639	135.551770	87.126528	-7.950371	4.635072
7.745763	-5.881566	6.245409	90.513308	0.154065	1.169774	0.343824	-6.795450	-7.031613	-1.578279	20.087613	0.350595	23.539419	3.278733	0.000000	-11.925317	6.212438	-5.377120	9.201623	0.160599	19.132758	1.009225	0.000000	0.413570	-1.285804	0.493266	0.768040	-1.710120	0.524096	0.679454	-3.126304	0.524096	0.472669	-3.126304	0.431608	0.384041	-2.622012	0.400779	0.236314	-1.991711	0.369950	2.954088	-14.545275	2.743400	0.000000	0.000000	8.441464	2.698387	-13.059617	2.448869	-11.249244	-7.421489	143.652663	88.152563	-18.859770	-18.673198	14.560157	-14.544880	6.746251	135.836281	87.328727	-7.837780	5.536843
7.762712	-5.737606	6.313320	90.466051	0.153960	1.169948	0.344971	-6.702196	-6.898867	-1.506884	20.213079	0.352785	23.589482	3.346161	0.000000	-11.814308	6.101082	-5.158556	9.477266	0.165409	19.173337	0.430386	0.000000	0.416114	-1.261309	0.497952	0.772766	-1.677541	0.529074	0.683634	-3.066746	0.529074	0.475577	-3.066746	0.435708	0.386404	-2.572061	0.404586	0.237768	-1.953767	0.373464	2.972263	-14.268178	2.769458	0.000000	0.000000	7.847304	2.972162	-11.460717	2.226965	-11.422711	-7.794345	144.108823	87.974490	-18.540847	-20.059927	14.139629	-14.639948	5.652710	136.079692	87.592214	-7.839800	6.084626
7.779661	-5.617370	6.326183	90.386208	0.154106	1.170260	0.346426	-6.528592	-6.775169	-1.369611	20.329331	0.354814	23.546342	3.332554	0.000000	-11.629332	5.999479	-5.062573	9.748084	0.170136	19.100185	-0.047917	0.000000	0.416880	-1.243196	0.515136	0.774188	-1.653451	0.547332	0.684892	-3.022708	0.547332	0.476452	-3.022708	0.450744	0.387115	-2.535126	0.418548	0.238205	-1.925711	0.386352	2.977733	-14.063286	2.865034	0.000000	0.000000	7.547305	3.186857	-10.344877	2.762105	-11.667345	-8.045551	144.379072	87.772865	-18.107835	-20.476153	14.378332	-14.683223	4.837057	136.327536	87.902986	-7.823244	6.308428
7.796610	-5.517385	6.287945	90.279816	0.154470	1.170678	0.348114	-6.292021	-6.661184	-1.196198	20.430793	0.356585	23.406088	3.252908	0.000000	-11.382194	5.907592	-5.036969	10.008632	0.174684	18.907946	-0.497806	0.000000	0.415554	-1.231831	0.548068	0.771725	-1.638335	0.582322	0.682713	-2.995073	0.582322	0.474936	-2.995073	0.479560	0.385883	-2.511949	0.445305	0.237447	-1.908106	0.411051	2.968259	-13.934713	3.048191	0.000000	0.000000	7.531478	3.327377	-9.868145	3.820375	-11.979195	-8.255402	144.554359	87.559716	-17.598813	-20.074180	15.134588	-14.705069	4.333755	136.562852	88.226068	-7.864771	6.075531
7.813559	-5.451410	6.183918	90.170523	0.155025	1.171140	0.349939	-5.995309	-6.568425	-1.015363	20.511092	0.357986	23.165121	3.091314	0.000000	-11.058861	5.836868	-5.011764	10.268452	0.179218	18.601591	-0.985456	0.000000	0.415549	-1.230009	0.601604	0.771716	-1.635911	0.639204	0.682705	-2.990643	0.639204	0.474931	-2.990643	0.526403	0.385879	-2.508233	0.488803	0.237445	-1.905283	0.451203	2.968224	-13.914102	3.345939	0.000000	0.000000	7.762415	3.434732	-10.078726	5.085058	-12.312259	-8.510556	144.717760	87.378859	-17.135754	-19.174488	16.264912	-14.740259	4.186157	136.699031	88.452360	-8.029598	5.227374
